<svg width="206" height="49" viewBox="0 0 206 49" fill="none" xmlns="http://www.w3.org/2000/svg">
<rect y="2" width="206" height="46" rx="15" fill="white"/>
<path d="M27.5583 29.9914C30.2629 29.9914 32.4554 27.7989 32.4554 25.0944C32.4554 22.3898 30.2629 20.1973 27.5583 20.1973C24.8537 20.1973 22.6613 22.3898 22.6613 25.0944C22.6613 27.7989 24.8537 29.9914 27.5583 29.9914Z" fill="#19BCFE"/>
<path fill-rule="evenodd" clip-rule="evenodd" d="M17.7642 39.7855C20.4688 39.7855 22.6613 37.593 22.6613 34.8885C22.6613 34.1502 22.6613 32.5178 22.6613 29.9914C20.4613 29.9914 18.829 29.9914 17.7642 29.9914C15.0596 29.9914 12.8672 32.1839 12.8672 34.8885C12.8672 37.593 15.0596 39.7855 17.7642 39.7855Z" fill="#09CF83"/>
<path fill-rule="evenodd" clip-rule="evenodd" d="M17.7642 29.9914H22.6613V20.1973C20.2981 20.1973 18.6657 20.1973 17.7642 20.1973C15.0596 20.1973 12.8672 22.3898 12.8672 25.0944C12.8672 27.7989 15.0596 29.9914 17.7642 29.9914Z" fill="#A259FF"/>
<path fill-rule="evenodd" clip-rule="evenodd" d="M17.7642 20.1973H22.6613V10.4032C20.2981 10.4032 18.6657 10.4032 17.7642 10.4032C15.0596 10.4032 12.8672 12.5957 12.8672 15.3003C12.8672 18.0048 15.0596 20.1973 17.7642 20.1973Z" fill="#F24E1E"/>
<path fill-rule="evenodd" clip-rule="evenodd" d="M27.5583 20.1973H22.6613V10.4032H27.5583C30.2629 10.4032 32.4554 12.5957 32.4554 15.3003C32.4554 18.0048 30.2629 20.1973 27.5583 20.1973Z" fill="#FF7262"/>
<path d="M46.2315 25.3228C46.2315 30.1104 49.0136 34.2474 53.0479 36.2082L47.2786 20.4006C46.587 21.9494 46.2302 23.6267 46.2315 25.3228ZM66.491 24.7125C66.491 25.7479 66.0931 26.9494 65.57 28.6223L64.3639 32.6537L59.9931 19.6522C60.7208 19.614 61.3774 19.5369 61.3774 19.5369C62.0289 19.4598 61.9522 18.5022 61.2998 18.5406C61.2998 18.5406 59.3413 18.6941 58.0765 18.6941C56.888 18.6941 54.8907 18.5406 54.8907 18.5406C54.2389 18.5022 54.1625 19.4987 54.8143 19.5369C54.8143 19.5369 55.4313 19.614 56.0826 19.6522L57.9672 24.8149L55.3201 32.7531L50.9157 19.6524C51.6448 19.6142 52.3002 19.5371 52.3002 19.5371C52.9513 19.46 52.8744 18.5024 52.2224 18.5409C52.2224 18.5409 50.2642 18.6944 48.9991 18.6944C48.7722 18.6944 48.5045 18.6886 48.2208 18.6801C50.3834 15.3965 54.1008 13.2286 58.3262 13.2286C61.4749 13.2286 64.3418 14.4322 66.4938 16.4036C66.4413 16.4006 66.3905 16.3939 66.3369 16.3939C65.1491 16.3939 64.3061 17.4288 64.3061 18.5406C64.3061 19.5369 64.8805 20.3806 65.4936 21.3769C65.9541 22.1826 66.491 23.2177 66.491 24.7125ZM58.5384 26.3808L62.2565 36.566C62.28 36.6241 62.3088 36.6799 62.3426 36.7326C61.0853 37.1745 59.7346 37.4182 58.3262 37.4182C57.1696 37.4182 56.019 37.2522 54.9095 36.9253L58.5384 26.3808ZM68.9388 19.5201C69.914 21.2985 70.4237 23.2946 70.4204 25.3228C70.4204 29.785 68.0019 33.6805 64.4062 35.7773L68.1006 25.0959C68.7911 23.3708 69.0203 21.9911 69.0203 20.7638C69.0203 20.3191 68.9908 19.9054 68.9388 19.5201ZM58.3262 11.2245C66.0998 11.2245 72.4254 17.549 72.4256 25.3228C72.4256 33.0978 66.0998 39.422 58.3262 39.422C50.5521 39.422 44.2274 33.0976 44.2274 25.3228C44.2274 17.549 50.5523 11.2245 58.3262 11.2245ZM58.3262 38.7756C65.7431 38.7756 71.7778 32.7407 71.7778 25.3228C71.7778 17.9057 65.7433 11.8712 58.3262 11.8712C50.9086 11.8712 44.8739 17.9057 44.8739 25.3228C44.8739 32.7407 50.9088 38.7756 58.3262 38.7756Z" fill="#00749A"/>
<path d="M99.1621 10.1295C90.9017 10.1295 84.1977 16.8335 84.1977 25.0938C84.1977 33.3542 90.9017 40.0582 99.1621 40.0582C107.422 40.0582 114.126 33.3542 114.126 25.0938C114.126 16.8335 107.422 10.1295 99.1621 10.1295ZM95.421 31.319H92.9369V18.8686H95.421V31.319ZM105.387 31.319H97.9051V28.8349H105.387V31.319ZM105.387 26.3508H97.9051V23.8368H105.387V26.3508ZM105.387 21.3527H97.9051V18.8686H105.387V21.3527Z" fill="#6F0230"/>
<path d="M170.799 37.8944L168.433 11.4333H194.425L192.057 37.8903L181.413 40.8333L170.799 37.8944Z" fill="#E44D26"/>
<path d="M181.429 38.4899L190.052 36.1174L192.081 13.5638H181.429V38.4899Z" fill="#F16529"/>
<path d="M181.429 23.3187H177.157L176.862 20.0002H181.429V16.7594H181.418H173.333L173.411 17.6289L174.204 26.5594H181.429V23.3187Z" fill="#EBEBEB"/>
<path d="M181.429 31.87L181.415 31.8739L177.845 30.8854L177.617 28.2638H175.882H174.399L174.848 33.425L181.414 35.2942L181.429 35.29V31.87Z" fill="#EBEBEB"/>
<path d="M181.429 23.3638V26.6428H185.379L185.007 30.8956L181.429 31.8827V35.2942L188.005 33.4311L188.053 32.8771L188.807 24.2443L188.886 23.3638H188.021H181.429Z" fill="white"/>
<path d="M181.429 16.7594V18.7442V19.9473V19.9551H189.225H189.235L189.3 19.2368L189.447 17.6168L189.525 16.7594H181.429Z" fill="white"/>
<path fill-rule="evenodd" clip-rule="evenodd" d="M140.999 11C132.716 11 126 17.4918 126 25.5004C126 31.9068 130.298 37.3411 136.258 39.2594C137.009 39.392 137.282 38.9443 137.282 38.5597C137.282 38.2161 137.269 37.3038 137.262 36.094C133.09 36.9699 132.209 34.15 132.209 34.15C131.527 32.4756 130.543 32.0296 130.543 32.0296C129.181 31.1297 130.647 31.1475 130.647 31.1475C132.152 31.2508 132.944 32.6421 132.944 32.6421C134.282 34.8576 136.455 34.2176 137.31 33.8473C137.446 32.91 137.833 32.2709 138.262 31.9086C134.931 31.5427 131.429 30.2983 131.429 24.742C131.429 23.1594 132.014 21.8651 132.974 20.8512C132.819 20.4845 132.304 19.0104 133.12 17.0138C133.12 17.0138 134.38 16.6239 137.245 18.5004C138.441 18.179 139.725 18.0179 141 18.0126C142.274 18.0179 143.558 18.179 144.756 18.5004C147.619 16.6239 148.876 17.0138 148.876 17.0138C149.695 19.0104 149.18 20.4845 149.026 20.8512C149.987 21.8651 150.568 23.1594 150.568 24.742C150.568 30.3126 147.06 31.5383 143.719 31.897C144.257 32.3448 144.737 33.2296 144.737 34.5826C144.737 36.5204 144.719 38.0844 144.719 38.5597C144.719 38.9478 144.989 39.3991 145.75 39.2576C151.706 37.3358 156 31.905 156 25.5004C156 17.4918 149.283 11 140.999 11Z" fill="#1C1C1C"/>
</svg>
