<svg width="659" height="495" viewBox="0 0 659 495" fill="none" xmlns="http://www.w3.org/2000/svg">
<path d="M293.469 141.355L49.8204 283.255C47.4516 284.634 45.4893 286.616 44.1329 288.999C42.7765 291.383 42.0743 294.084 42.0977 296.828C42.1212 299.572 42.8693 302.26 44.2663 304.62C45.6632 306.981 47.659 308.928 50.051 310.266L348.249 477.428C351.852 479.447 355.906 480.523 360.036 480.558C364.165 480.593 368.237 479.584 371.874 477.625L601.025 354.189C603.944 352.614 606.393 350.288 608.118 347.451C609.844 344.615 610.784 341.369 610.843 338.048C610.902 334.727 610.077 331.45 608.452 328.554C606.828 325.657 604.464 323.246 601.601 321.568L293.469 141.355Z" fill="#FBFBFB"/>
<path opacity="0.32" d="M258.312 359.189C271.953 345.164 286.616 332.178 299.598 317.609L247.125 289.79L135.803 349.388C156.611 360.311 187.074 383.675 216.811 403.92C230.65 389.004 244.127 373.775 258.312 359.189Z" fill="url(#paint0_linear_5_182)"/>
<path opacity="0.32" d="M173.679 296.653C196.596 279.675 219.431 262.564 243.336 247.054L194.207 221.017L90.7114 285.004C106.412 293.254 119.823 304.194 142.064 319.935C152.575 312.114 163.103 304.425 173.679 296.653Z" fill="url(#paint1_linear_5_182)"/>
<path opacity="0.32" d="M303.997 396.429C328.709 383.114 381.726 331.403 406.142 317.79L313.025 268.439L201.819 328.053C227.635 341.55 268.295 374.302 303.997 396.429Z" fill="url(#paint2_linear_5_182)"/>
<path d="M354.114 248.919L322.811 264.016C321.635 264.587 320.635 265.466 319.918 266.561C319.202 267.655 318.796 268.924 318.743 270.232C318.691 271.54 318.994 272.838 319.621 273.986C320.247 275.135 321.173 276.092 322.3 276.754L396.52 320.1C398.126 321.039 400.031 321.321 401.838 320.887C403.646 320.454 405.217 319.338 406.224 317.773L424.264 289.723" fill="#56403D"/>
<path d="M511.417 168.514L255.741 21.0045C254.482 20.2482 253.043 19.843 251.574 19.8309C250.105 19.8188 248.66 20.2002 247.388 20.9357C246.116 21.6711 245.063 22.7339 244.339 24.0138C243.615 25.2936 243.246 26.7441 243.27 28.215V184.965C243.27 186.093 243.568 187.201 244.132 188.177C244.696 189.153 245.506 189.963 246.483 190.526L518.617 347.853C519.088 348.125 519.622 348.269 520.166 348.269C520.71 348.268 521.244 348.125 521.715 347.852C522.186 347.58 522.577 347.188 522.849 346.716C523.12 346.244 523.263 345.708 523.262 345.164V189.041C523.264 184.878 522.169 180.789 520.09 177.186C518.01 173.582 515.019 170.591 511.417 168.514Z" fill="#2DD9FF"/>
<path d="M260.19 34.881L502.372 174.438C504.959 175.928 507.109 178.075 508.604 180.661C510.099 183.248 510.888 186.184 510.89 189.173V301.554C510.891 302.63 510.609 303.688 510.073 304.62C509.537 305.553 508.765 306.328 507.836 306.868C506.906 307.408 505.851 307.694 504.776 307.696C503.702 307.699 502.645 307.419 501.713 306.884L254.704 165C253.782 164.469 253.017 163.705 252.485 162.784C251.953 161.863 251.672 160.817 251.672 159.753V39.8145C251.672 38.8162 251.935 37.8354 252.433 36.9707C252.931 36.106 253.648 35.3877 254.51 34.8879C255.373 34.3881 256.352 34.1243 257.349 34.1231C258.346 34.1219 259.326 34.3833 260.19 34.881Z" fill="white"/>
<path d="M364.672 246.378C366.101 246.103 367.259 245.872 367.257 245.863C367.255 245.854 366.095 246.07 364.665 246.346C363.236 246.622 362.078 246.852 362.08 246.861C362.082 246.87 363.242 246.654 364.672 246.378Z" fill="#AB643C"/>
<path d="M492.504 180.741C493.96 180.741 495.14 179.456 495.14 177.87C495.14 176.284 493.96 174.999 492.504 174.999C491.048 174.999 489.868 176.284 489.868 177.87C489.868 179.456 491.048 180.741 492.504 180.741Z" fill="#659FE4"/>
<path d="M484.101 176.566C485.557 176.566 486.737 175.281 486.737 173.695C486.737 172.11 485.557 170.824 484.101 170.824C482.646 170.824 481.465 172.11 481.465 173.695C481.465 175.281 482.646 176.566 484.101 176.566Z" fill="#C5E9FF"/>
<path d="M220.353 306.636L220.337 308.204L221.127 309.194" fill="#ADCEE1"/>
<path d="M251.919 287.661L221.243 306.521C220.952 306.686 220.709 306.926 220.541 307.216C220.373 307.506 220.284 307.835 220.284 308.171C220.284 308.506 220.373 308.835 220.541 309.125C220.709 309.415 220.952 309.655 221.243 309.821L267.57 336.32C268.217 336.693 268.95 336.89 269.696 336.89C270.442 336.89 271.175 336.693 271.821 336.32L302.399 318.45C304.623 316.635 304.474 313.203 302.399 313.055L256.269 287.595C255.603 287.219 254.849 287.028 254.085 287.039C253.321 287.051 252.573 287.265 251.919 287.661Z" fill="#88D3D8"/>
<path d="M251.919 286.358L221.243 305.25C220.952 305.416 220.709 305.656 220.541 305.945C220.373 306.235 220.284 306.565 220.284 306.9C220.284 307.235 220.373 307.565 220.541 307.855C220.709 308.144 220.952 308.384 221.243 308.55L267.62 334.95C268.266 335.324 268.999 335.52 269.745 335.52C270.491 335.52 271.224 335.324 271.87 334.95L302.399 317.147C302.758 316.94 303.057 316.642 303.264 316.283C303.472 315.923 303.581 315.516 303.581 315.101C303.581 314.685 303.472 314.278 303.264 313.919C303.057 313.559 302.758 313.261 302.399 313.055L256.269 286.292C255.603 285.916 254.849 285.724 254.085 285.736C253.321 285.747 252.573 285.962 251.919 286.358Z" fill="white"/>
<path d="M253.171 283.8C253.171 283.8 266.038 242.781 265.972 242.781C265.906 242.781 266.368 240.949 268.641 242.005L317.276 270.946C317.276 270.946 319.631 271.92 319.17 274.114C318.709 276.309 306.583 314.259 306.583 314.259C306.333 314.62 305.974 314.891 305.56 315.034C305.145 315.176 304.695 315.182 304.277 315.051C302.794 314.589 254.308 286.11 254.308 286.11C253.858 285.945 253.489 285.613 253.277 285.183C253.066 284.753 253.028 284.258 253.171 283.8Z" fill="#053855"/>
<path d="M266.763 245.734L316.584 275.088L306.089 309.87L255.626 281.374L266.763 245.734Z" fill="#2DD9FF"/>
<path d="M250.025 290.697L238.805 297.627C238.604 297.747 238.437 297.917 238.321 298.121C238.205 298.325 238.144 298.556 238.144 298.79C238.144 299.025 238.205 299.255 238.321 299.459C238.437 299.663 238.604 299.834 238.805 299.953L278.872 323.053C279.473 323.401 280.155 323.584 280.849 323.584C281.543 323.584 282.225 323.401 282.826 323.053C285.413 321.552 289.861 318.862 292.596 317.196C292.838 317.049 293.038 316.842 293.177 316.595C293.316 316.348 293.389 316.069 293.389 315.785C293.389 315.502 293.316 315.223 293.177 314.976C293.038 314.729 292.838 314.522 292.596 314.374L252.282 290.68C251.939 290.478 251.548 290.372 251.151 290.375C250.753 290.378 250.364 290.489 250.025 290.697Z" fill="#2DD9FF"/>
<path d="M250.552 309.639L264.539 317.592C264.755 317.714 264.935 317.892 265.06 318.106C265.185 318.321 265.25 318.565 265.25 318.813C265.25 319.061 265.185 319.305 265.06 319.52C264.935 319.734 264.755 319.912 264.539 320.034L256.302 324.836C256.019 324.999 255.698 325.085 255.371 325.085C255.044 325.085 254.723 324.999 254.44 324.836L240.123 316.586C239.941 316.484 239.79 316.336 239.684 316.156C239.579 315.976 239.523 315.771 239.523 315.563C239.523 315.354 239.579 315.149 239.684 314.969C239.79 314.79 239.941 314.641 240.123 314.54L248.723 309.59C249.006 309.439 249.324 309.365 249.644 309.374C249.964 309.382 250.277 309.474 250.552 309.639Z" fill="#2DD9FF"/>
<path opacity="0.1" d="M250.025 290.697L238.805 297.627C238.604 297.747 238.437 297.917 238.321 298.121C238.205 298.325 238.144 298.556 238.144 298.79C238.144 299.025 238.205 299.255 238.321 299.459C238.437 299.663 238.604 299.834 238.805 299.953L278.872 323.053C279.473 323.401 280.155 323.584 280.849 323.584C281.543 323.584 282.225 323.401 282.826 323.053C285.413 321.552 289.861 318.862 292.596 317.196C292.838 317.049 293.038 316.842 293.177 316.595C293.316 316.348 293.389 316.069 293.389 315.785C293.389 315.502 293.316 315.223 293.177 314.976C293.038 314.729 292.838 314.522 292.596 314.374L252.282 290.68C251.939 290.478 251.548 290.372 251.151 290.375C250.753 290.378 250.364 290.489 250.025 290.697Z" fill="#053855"/>
<path opacity="0.1" d="M250.552 309.639L264.539 317.592C264.755 317.714 264.935 317.892 265.06 318.106C265.185 318.321 265.25 318.565 265.25 318.813C265.25 319.061 265.185 319.305 265.06 319.52C264.935 319.734 264.755 319.912 264.539 320.034L256.302 324.836C256.019 324.999 255.698 325.085 255.371 325.085C255.044 325.085 254.723 324.999 254.44 324.836L240.123 316.586C239.941 316.484 239.79 316.336 239.684 316.156C239.579 315.976 239.523 315.771 239.523 315.563C239.523 315.354 239.579 315.149 239.684 314.969C239.79 314.79 239.941 314.641 240.123 314.54L248.723 309.59C249.006 309.439 249.324 309.365 249.644 309.374C249.964 309.382 250.277 309.474 250.552 309.639Z" fill="#053855"/>
<path d="M196.464 283.338C189.883 289.012 184.907 296.318 182.032 304.524C176.958 318.532 189.627 341.451 189.627 341.451L209.397 325.842" fill="#FF8F6F"/>
<path d="M180.615 359.7C180.625 362.823 181.61 365.864 183.433 368.397C185.256 370.93 187.826 372.828 190.781 373.824C194.825 375.184 199.094 375.744 203.351 375.474C212.083 374.913 219.727 370.821 226.152 365.178C224.933 349.668 220.567 338.778 216.827 333.581L192.972 322.031C192.856 324.192 180.286 338.778 180.582 356.549C180.593 357.66 180.604 358.71 180.615 359.7Z" fill="#3E2928"/>
<path d="M216.399 306.9L191.11 305.663L186.744 336.105C194.273 341.303 214.159 338.167 218.673 337.392C217.338 327.31 217.47 316.965 216.399 306.9Z" fill="#FF8F6F"/>
<path d="M253.715 302.709L251.178 304.937C253.311 303.713 255.511 302.611 257.768 301.637C259.3 300.944 260.14 303.419 258.625 304.112L257.85 304.475C258.663 304.167 259.481 303.87 260.305 303.584C260.633 303.47 260.992 303.491 261.304 303.643C261.616 303.794 261.855 304.064 261.969 304.392C262.083 304.72 262.061 305.08 261.91 305.393C261.759 305.705 261.489 305.945 261.162 306.059C259.018 306.794 256.912 307.637 254.852 308.583C256.704 307.992 258.591 307.518 260.503 307.164C262.15 306.851 262.298 309.474 260.667 309.771C258.494 310.176 256.356 310.756 254.275 311.504C254.942 311.508 255.604 311.619 256.236 311.834C256.994 312.032 258.938 312.147 259.284 312.906C259.368 313.097 259.406 313.304 259.395 313.513C259.383 313.721 259.323 313.923 259.219 314.103C259.114 314.284 258.968 314.437 258.794 314.55C258.619 314.663 258.42 314.733 258.213 314.754L248.41 315.761C247.437 316.318 246.55 317.013 245.774 317.823C244.783 316.643 243.733 315.514 242.627 314.441C241.65 313.483 240.622 312.58 239.547 311.735C240.513 310.811 241.502 309.914 242.512 309.045C242.726 308.748 243.253 308.897 243.846 308.402C247.141 305.564 247.916 305.366 251.507 301.983C254.16 299.343 255.264 301.356 253.715 302.709Z" fill="#FFB5A9"/>
<path d="M208.228 288.849C208.228 288.849 217.437 291.341 221.177 297.314C223.514 301.422 225.572 305.683 227.339 310.068L244.077 306.158C244.077 306.158 248.937 311.85 252.216 315.926C252.216 315.926 235.873 327.475 227.339 329.373C218.804 331.27 209.743 316.668 209.743 316.668C209.743 316.668 207.865 322.707 208.228 316.255" fill="#FF8F6F"/>
<path d="M214.966 308.253C212.302 306.092 210.284 303.237 209.134 300.003C208.03 296.241 209.414 292.925 210.781 289.41C212.174 285.937 212.987 282.258 213.187 278.52C213.302 274.841 212.873 271.178 212.626 267.515C212.59 267.357 212.59 267.193 212.626 267.036C211.407 262.895 208.87 259.397 203.895 258.984C191.028 257.895 190.303 272.184 190.402 277.959C190.5 283.734 191.11 287.678 186.843 290.12C182.576 292.562 179.495 298.898 183.548 304.046C187.601 309.194 183.96 307.346 181.258 311.883C178.556 316.421 179.248 322.163 184.817 324.225C190.385 326.288 216.284 322.41 218.673 320.001C219.516 319.037 219.953 317.783 219.892 316.503C219.308 313.244 217.556 310.311 214.966 308.253Z" fill="#007F68"/>
<path d="M219.76 341.468C222.874 340.791 253.056 338.382 260.091 348.893C267.126 359.403 228.788 374.369 203.351 375.573C177.914 376.778 206.102 344.405 219.76 341.468Z" fill="#3E2928"/>
<path d="M181.522 185.773V237.666L221.655 260.881L254.341 241.411V193.198" fill="#3ACEB2"/>
<path d="M221.655 260.881V209.665L254.341 190.492V241.411L221.655 260.881Z" fill="#4BE2C5"/>
<path d="M214.57 166.171L181.522 185.773L221.655 209.665L254.341 190.492L214.57 166.171Z" fill="#52EFD1"/>
<path d="M186.761 194.304V205.045L216.827 222.239V211.695L186.761 194.304Z" fill="#7374B7"/>
<path d="M213.792 216.42C214.218 216.289 214.395 215.632 214.187 214.953C213.979 214.273 213.464 213.829 213.038 213.96C212.612 214.091 212.435 214.748 212.643 215.427C212.852 216.107 213.366 216.551 213.792 216.42Z" fill="#F7931E"/>
<path d="M211.208 214.915C211.635 214.784 211.811 214.127 211.603 213.447C211.395 212.768 210.881 212.323 210.454 212.454C210.028 212.585 209.851 213.242 210.06 213.922C210.268 214.601 210.782 215.046 211.208 214.915Z" fill="#D9E021"/>
<path d="M208.013 212.487L189.43 201.795" stroke="#F2F2F2" stroke-width="0.25" stroke-miterlimit="10"/>
<path d="M186.052 209.368V220.11L216.119 237.286V226.759L186.052 209.368Z" fill="#7374B7"/>
<path d="M213.079 231.476C213.506 231.345 213.682 230.688 213.474 230.008C213.266 229.329 212.752 228.884 212.325 229.015C211.899 229.146 211.722 229.803 211.931 230.482C212.139 231.162 212.653 231.607 213.079 231.476Z" fill="#F7931E"/>
<path d="M210.512 229.987C210.938 229.856 211.115 229.199 210.907 228.519C210.699 227.84 210.184 227.395 209.758 227.526C209.332 227.657 209.155 228.314 209.363 228.994C209.572 229.673 210.086 230.118 210.512 229.987Z" fill="#D9E021"/>
<path d="M207.305 227.552L188.721 216.859" stroke="#F2F2F2" stroke-width="0.25" stroke-miterlimit="10"/>
<path d="M186.052 224.4V235.141L216.119 252.318V241.791L186.052 224.4Z" fill="#7374B7"/>
<path d="M213.067 246.522C213.493 246.391 213.67 245.734 213.462 245.055C213.254 244.375 212.739 243.93 212.313 244.061C211.887 244.192 211.71 244.85 211.919 245.529C212.127 246.209 212.641 246.653 213.067 246.522Z" fill="#F7931E"/>
<path d="M210.5 245.017C210.926 244.886 211.103 244.229 210.895 243.549C210.686 242.87 210.172 242.425 209.746 242.556C209.32 242.687 209.143 243.344 209.351 244.024C209.559 244.703 210.074 245.148 210.5 245.017Z" fill="#D9E021"/>
<path d="M207.305 242.583L188.721 231.891" stroke="#F2F2F2" stroke-width="0.25" stroke-miterlimit="10"/>
<path d="M254.341 208.329L221.803 227.552L181.522 204.105" stroke="#1B1464" stroke-width="0.25" stroke-miterlimit="10"/>
<path d="M254.341 223.36L221.803 242.583L181.522 219.153" stroke="#1B1464" stroke-width="0.25" stroke-miterlimit="10"/>
<path d="M551.27 165.594V248.457C551.271 250.089 550.84 251.691 550.02 253.102C549.201 254.512 548.022 255.679 546.605 256.484C545.188 257.289 543.583 257.704 541.954 257.685C540.325 257.666 538.73 257.215 537.332 256.377L458.697 209.402C457.327 208.584 456.192 207.425 455.403 206.037C454.615 204.648 454.2 203.079 454.199 201.482V120.136C454.206 118.518 454.637 116.93 455.45 115.532C456.264 114.133 457.43 112.973 458.832 112.169C460.235 111.365 461.824 110.945 463.439 110.95C465.055 110.955 466.641 111.386 468.038 112.2L546.673 157.674C548.062 158.479 549.217 159.633 550.023 161.022C550.829 162.411 551.259 163.987 551.27 165.594Z" fill="#A5DD73"/>
<path opacity="0.32" d="M432.469 432.069C446.028 423.027 459.817 414.315 473.524 405.521L454.051 391.281L378.645 422.813C387.756 427.598 400.062 436.557 413.012 445.682C419.437 441.062 425.879 436.458 432.469 432.069Z" fill="url(#paint3_linear_5_182)"/>
<path d="M480.922 352.16C480.81 351.693 480.602 351.255 480.312 350.873C479.78 350.224 479.146 349.666 478.434 349.223C468.862 342.738 455.6 340.973 445.484 347.292C443.177 348.744 439.734 352.028 441.102 355.13C441.892 356.928 444.298 357.984 446.044 358.71C451.61 360.918 457.425 362.437 463.359 363.231C465.501 363.594 467.676 363.957 469.834 364.155C471.327 364.299 472.832 364.065 474.211 363.474C475.59 362.883 476.799 361.954 477.726 360.773C479.175 358.859 481.597 354.981 480.922 352.16Z" fill="#754C24"/>
<path d="M440.822 353.71C440.822 353.71 449.553 361.63 464.644 360.475C479.736 359.32 480.905 352.225 480.905 352.225C480.905 352.225 477.001 402.319 474.941 403.178C472.882 404.036 465.172 407.764 461.448 408.045C457.725 408.325 445.962 403.607 445.665 402.303C445.369 401 440.822 353.71 440.822 353.71Z" fill="#FF8F6F"/>
<path d="M443.573 280.714C443.112 279.774 441.678 280.599 442.156 281.539C452.486 302.395 454.496 325.875 456.358 348.678C456.44 349.717 458.087 349.734 458.005 348.678C456.127 325.561 454.051 301.834 443.573 280.714Z" fill="#007F68"/>
<path d="M442.255 280.913C442.255 280.913 445.138 291.736 442.156 297.149C439.174 302.56 436.719 303.633 440.278 310.348C443.837 317.064 453.359 317.972 453.985 323.12C454.611 328.268 449.438 290.103 442.255 280.913Z" fill="#007F68"/>
<path d="M475.287 300.448C467.332 317.111 462.847 335.222 462.107 353.678C462.107 354.965 464.068 354.948 464.117 353.678C464.816 335.573 469.182 317.8 476.951 301.439C477.577 300.3 475.847 299.277 475.287 300.448Z" fill="#007F68"/>
<path d="M476.704 305.728C476.704 304.639 476.457 302.428 476.572 300.597L475.419 301.323C471.498 310.876 465.633 333.316 463.887 340.18C466.275 335.032 476.045 334.323 478.912 326.98C480.177 323.864 480.236 320.387 479.077 317.229C477.663 313.551 476.861 309.666 476.704 305.728Z" fill="#007F68"/>
<path d="M495.14 156.255L469.653 175.016L492.504 207.141" stroke="#006837" stroke-width="4" stroke-miterlimit="10"/>
<path d="M517.694 169.802L536.442 206.498L510.066 218.823" stroke="#006837" stroke-width="4" stroke-miterlimit="10"/>
<path d="M265.247 56.826L413.786 141.356" stroke="#00A99D" stroke-width="4" stroke-miterlimit="10"/>
<path d="M265.791 78.936L289.828 92.6145" stroke="#D4145A" stroke-width="4" stroke-miterlimit="10"/>
<path d="M296.962 97.2345L430.624 170.824" stroke="#29ABE2" stroke-width="4" stroke-miterlimit="10"/>
<path d="M265.247 99.0825L316.584 127.446" stroke="#F7931E" stroke-width="4" stroke-miterlimit="10"/>
<path d="M325.101 132.825L437.658 193.116" stroke="#00A99D" stroke-width="4" stroke-miterlimit="10"/>
<defs>
<linearGradient id="paint0_linear_5_182" x1="171.538" y1="380.391" x2="250.412" y2="318.913" gradientUnits="userSpaceOnUse">
<stop stop-color="white" stop-opacity="0"/>
<stop offset="0.98" stop-color="#0800BF"/>
</linearGradient>
<linearGradient id="paint1_linear_5_182" x1="137.121" y1="296.505" x2="213.947" y2="218.461" gradientUnits="userSpaceOnUse">
<stop stop-color="white" stop-opacity="0"/>
<stop offset="0.98" stop-color="#0800BF"/>
</linearGradient>
<linearGradient id="paint2_linear_5_182" x1="289.598" y1="366.267" x2="328.172" y2="250.703" gradientUnits="userSpaceOnUse">
<stop stop-color="white" stop-opacity="0"/>
<stop offset="0.98" stop-color="#0800BF"/>
</linearGradient>
<linearGradient id="paint3_linear_5_182" x1="416.867" y1="421.592" x2="455.745" y2="390.299" gradientUnits="userSpaceOnUse">
<stop stop-color="white" stop-opacity="0"/>
<stop offset="0.98" stop-color="#0800BF"/>
</linearGradient>
</defs>
</svg>
